<svg width="23" height="22" viewBox="0 0 23 22" fill="none" xmlns="http://www.w3.org/2000/svg">
<ellipse cx="11.326" cy="11" rx="11.326" ry="11" fill="#73C6B6"/>
<path d="M6.34727 16.8584C6.08061 16.9636 5.82728 16.9404 5.58729 16.789C5.34729 16.638 5.22729 16.4179 5.22729 16.1286V13.1895C5.22729 13.0054 5.28063 12.8411 5.38729 12.6964C5.49396 12.5518 5.64062 12.4597 5.82728 12.4203L11.6272 11L5.82728 9.57984C5.64062 9.54039 5.49396 9.44834 5.38729 9.30369C5.28063 9.15904 5.22729 8.99467 5.22729 8.81057V5.87154C5.22729 5.58224 5.34729 5.36184 5.58729 5.21035C5.82728 5.05939 6.08061 5.03651 6.34727 5.14171L18.667 10.2702C19.0003 10.4149 19.167 10.6581 19.167 11C19.167 11.3419 19.0003 11.5852 18.667 11.7299L6.34727 16.8584Z" fill="white"/>
</svg>
