<svg width="29" height="17" viewBox="0 0 29 17" fill="none" xmlns="http://www.w3.org/2000/svg">
<path d="M26.1541 5.63636H15.3333C14.2707 2.35318 11.3938 0 8.01149 0C3.72206 0 0.236084 3.79045 0.236084 8.45455C0.236084 13.1186 3.72206 16.9091 8.01149 16.9091C11.3938 16.9091 14.2707 14.5559 15.3333 11.2727H15.7869L18.3787 14.0909L20.9705 11.2727L23.5623 14.0909L28.7459 8.39818L26.1541 5.63636ZM8.01149 12.6818C5.87326 12.6818 4.12379 10.7795 4.12379 8.45455C4.12379 6.12955 5.87326 4.22727 8.01149 4.22727C10.1497 4.22727 11.8992 6.12955 11.8992 8.45455C11.8992 10.7795 10.1497 12.6818 8.01149 12.6818Z" fill="black" fill-opacity="0.4"/>
</svg>
